HIERARCHY
ROOT Hips
{
	OFFSET -0.001795 -0.223333 0.028219
	CHANNELS 6 Xposition Yposition Zposition Zrotation Yrotation Xrotation 
	JOINT LeftUpLeg
	{
		OFFSET 0.069520 -0.091406 -0.006815
		CHANNELS 3 Zrotation Yrotation Xrotation
		JOINT LeftLeg
		{
			OFFSET 0.034277 -0.375199 -0.004496
			CHANNELS 3 Zrotation Yrotation Xrotation
			JOINT LeftFoot
			{
				OFFSET -0.013596 -0.397961 -0.043693
				CHANNELS 3 Zrotation Yrotation Xrotation
				JOINT LeftToe
				{
					OFFSET 0.026358 -0.055791 0.119288
					CHANNELS 3 Zrotation Yrotation Xrotation
					End Site
					{
						OFFSET 0.000000 0.000000 0.000000
					}
				}
			}
		}
	}
	JOINT RightUpLeg
	{
		OFFSET -0.067670 -0.090522 -0.004320
		CHANNELS 3 Zrotation Yrotation Xrotation
		JOINT RightLeg
		{
			OFFSET -0.038290 -0.382569 -0.008850
			CHANNELS 3 Zrotation Yrotation Xrotation
			JOINT RightFoot
			{
				OFFSET 0.015774 -0.398415 -0.042312
				CHANNELS 3 Zrotation Yrotation Xrotation
				JOINT RightToe
				{
					OFFSET -0.025372 -0.048144 0.123348
					CHANNELS 3 Zrotation Yrotation Xrotation
					End Site
					{
						OFFSET 0.000000 0.000000 0.000000
					}
				}
			}
		}
	}
	JOINT Spine
	{
		OFFSET -0.002533 0.108963 -0.026696
		CHANNELS 3 Zrotation Yrotation Xrotation
		JOINT Spine1
		{
			OFFSET 0.005487 0.135180 0.001092
			CHANNELS 3 Zrotation Yrotation Xrotation
			JOINT Spine2
			{
				OFFSET 0.001457 0.052922 0.025425
				CHANNELS 3 Zrotation Yrotation Xrotation
				JOINT Neck
				{
					OFFSET -0.002778 0.213870 -0.042857
					CHANNELS 3 Zrotation Yrotation Xrotation
					JOINT Head
					{
						OFFSET 0.005152 0.064970 0.051349
						CHANNELS 3 Zrotation Yrotation Xrotation
						End Site
						{
							OFFSET 0.000000 0.000000 0.000000
						}
					}
				}
				JOINT LeftShoulder
				{
					OFFSET 0.078845 0.121749 -0.034090
					CHANNELS 3 Zrotation Yrotation Xrotation
					JOINT LeftArm
					{
						OFFSET 0.090977 0.030469 -0.008868
						CHANNELS 3 Zrotation Yrotation Xrotation
						JOINT LeftForeArm
						{
							OFFSET 0.259612 -0.012772 -0.027456
							CHANNELS 3 Zrotation Yrotation Xrotation
							JOINT LeftHand
							{
								OFFSET 0.249234 0.008986 -0.001171
								CHANNELS 3 Zrotation Yrotation Xrotation
								End Site
								{
									OFFSET 0.000000 0.000000 0.000000
								}
							}
						}
					}
				}
				JOINT RightShoulder
				{
					OFFSET -0.081759 0.118833 -0.038615
					CHANNELS 3 Zrotation Yrotation Xrotation
					JOINT RightArm
					{
						OFFSET -0.096012 0.032551 -0.009143
						CHANNELS 3 Zrotation Yrotation Xrotation
						JOINT RightForeArm
						{
							OFFSET -0.253742 -0.013329 -0.021401
							CHANNELS 3 Zrotation Yrotation Xrotation
							JOINT RightHand
							{
								OFFSET -0.255298 0.007772 -0.005559
								CHANNELS 3 Zrotation Yrotation Xrotation
								End Site
								{
									OFFSET 0.000000 0.000000 0.000000
								}
							}
						}
					}
				}
			}
		}
	}
}
MOTION
Frames: 18
Frame Time: 0.050000
-1.596868 0.933066 3.224432 0.126502 -28.624609 2.888787 -0.523303 -0.588038 -26.762201 -1.660448 0.364546 4.935729 8.276220 13.969622 19.533668 0.000000 0.000000 0.000000 1.029951 -0.538510 13.614734 -3.008742 1.511792 12.736585 5.354925 6.891981 5.362873 0.000000 0.000000 0.000000 -3.119658 0.084209 2.244487 2.279354 -0.494280 -22.270793 2.214827 7.862530 30.586402 1.840539 -1.438485 -22.222818 0.000000 0.000000 0.000000 -18.410455 5.483971 -1.350656 -62.826119 -1.845840 -8.711358 -8.388895 -33.558573 5.739631 0.000000 0.000000 0.000000 11.976955 0.203057 -2.403065 66.276393 2.579037 -8.942815 9.244969 27.504346 2.752643 0.000000 0.000000 0.000000 
-1.604799 0.935425 3.263806 0.509379 -27.731399 4.034806 -1.662862 -0.955458 -26.667175 -1.668616 0.378230 5.656139 8.626941 14.742909 17.905747 0.000000 0.000000 0.000000 0.285288 -0.434989 13.588775 -3.093512 1.601194 13.318873 6.415330 5.317877 9.569234 0.000000 0.000000 0.000000 -3.698866 0.136351 2.869108 2.197315 -0.329091 -23.644548 1.768322 8.264974 31.026601 2.134176 -1.479350 -22.442299 0.000000 0.000000 0.000000 -17.904045 4.932340 -1.216547 -62.574909 -3.074753 -8.176330 -6.820192 -33.516236 5.216586 0.000000 0.000000 0.000000 12.944813 -0.056681 -2.541952 66.581062 2.390396 -9.003602 6.978393 27.487614 2.330863 0.000000 0.000000 0.000000 
-1.613084 0.938363 3.305552 1.317496 -27.141276 4.197767 -2.897909 -1.330263 -26.193590 -2.446189 0.623548 7.548739 8.672207 15.136274 16.068221 0.000000 0.000000 0.000000 -1.084429 -0.172508 13.999958 -3.285137 1.853475 14.858990 7.985955 3.996891 15.054468 0.000000 0.000000 0.000000 -4.873771 0.231863 2.481967 2.334386 -0.338478 -23.534622 2.150173 8.906360 31.715267 0.407053 -0.282404 -20.845020 0.000000 0.000000 0.000000 -17.559070 3.762649 -0.781466 -62.532693 -4.196944 -7.680437 -5.717462 -33.796845 4.849749 0.000000 0.000000 0.000000 13.043046 -0.042851 -2.340808 66.945193 3.018632 -8.655360 6.753610 27.493454 2.374247 0.000000 0.000000 0.000000 
-1.621398 0.941384 3.349038 1.507933 -25.771525 4.555212 -3.982769 -1.693417 -25.260578 -2.447034 0.713948 9.772665 8.196558 14.823760 14.097108 0.000000 0.000000 0.000000 -1.817718 -0.110582 12.110190 -1.666904 2.359728 20.576774 9.040012 2.573207 20.346017 0.000000 0.000000 0.000000 -5.063560 0.252318 2.837735 1.551652 -0.143402 -23.655514 1.815938 8.105502 31.644702 0.387242 -0.268482 -20.248981 0.000000 0.000000 0.000000 -17.054654 3.530973 -0.698274 -62.258897 -5.157654 -7.174125 -3.680996 -34.628954 4.377866 0.000000 0.000000 0.000000 12.297243 0.178586 -2.050191 68.579039 3.349744 -8.745221 6.642456 27.408443 2.378468 0.000000 0.000000 0.000000 
-1.629676 0.944048 3.392782 1.715041 -24.911044 4.077934 -4.888216 -1.943311 -23.505504 -2.621026 0.895710 12.232751 7.421683 14.050525 10.990667 0.000000 0.000000 0.000000 -3.842547 0.197299 8.122973 1.470033 3.001559 29.931416 9.293260 0.102296 26.473910 0.000000 0.000000 0.000000 -6.107011 0.359354 4.018359 2.384814 -0.119906 -25.526017 1.787234 7.066264 33.005015 -0.648197 0.333629 -20.321126 0.000000 0.000000 0.000000 -17.688568 2.645242 -0.044434 -61.132494 -5.493982 -7.169146 -4.174365 -34.422045 4.499198 0.000000 0.000000 0.000000 12.211959 0.688384 -1.847889 68.593713 3.072101 -9.085687 7.119467 27.653736 2.509991 0.000000 0.000000 0.000000 
-1.638073 0.946467 3.435827 1.668483 -22.771603 3.790331 -6.139907 -2.168656 -20.580053 -2.412727 0.794167 12.488003 6.205951 12.372185 9.051271 0.000000 0.000000 0.000000 -3.909310 0.220824 3.004007 3.846450 3.701848 39.869497 5.789001 -4.276900 27.075675 0.000000 0.000000 0.000000 -5.892563 0.340333 4.794098 1.408561 0.024819 -24.787740 1.313872 5.108285 31.985519 -0.272695 -0.000679 -20.356195 0.000000 0.000000 0.000000 -17.320453 1.403844 0.698973 -60.122470 -6.309113 -6.603466 -2.337761 -35.120795 3.976324 0.000000 0.000000 0.000000 11.794692 0.712118 -1.860171 69.760386 2.731625 -9.423484 6.228771 28.611107 2.354217 0.000000 0.000000 0.000000 
-1.646543 0.949823 3.478328 1.532240 -21.068284 2.998350 -7.131363 -2.129497 -17.000179 -2.100793 0.704181 13.215340 5.254759 10.950957 7.015665 0.000000 0.000000 0.000000 -3.664456 0.394420 -2.181539 5.726154 3.956440 47.667078 1.712787 -8.502245 24.515661 0.000000 0.000000 0.000000 -5.797731 0.331542 5.816433 1.757501 -0.077409 -24.344621 0.130480 4.047867 31.802216 -0.079794 -0.140805 -20.026011 0.000000 0.000000 0.000000 -16.751072 0.216409 1.298972 -60.068419 -6.083689 -6.704597 -1.964126 -36.139805 3.953517 0.000000 0.000000 0.000000 13.101309 1.254539 -1.839675 69.305248 2.838161 -9.152813 5.948998 28.802809 2.317322 0.000000 0.000000 0.000000 
-1.654813 0.953143 3.520296 1.259159 -18.558929 1.623640 -8.001400 -1.812636 -12.411551 -1.262240 0.382719 12.897236 4.603742 9.955957 4.158230 0.000000 0.000000 0.000000 -2.546186 0.634551 -6.409316 6.339330 3.784901 52.032599 -1.337933 -10.717730 17.783863 0.000000 0.000000 0.000000 -5.438823 0.272725 6.638061 1.398023 -0.022915 -23.730074 -0.223699 1.971675 31.636607 -0.176197 -0.202660 -18.780651 0.000000 0.000000 0.000000 -16.615864 -0.571538 1.813800 -60.103686 -7.679951 -5.910249 -0.431510 -35.641412 3.414013 0.000000 0.000000 0.000000 13.056185 2.571180 -1.298959 69.532648 2.787934 -9.191991 4.599731 29.133460 1.992393 0.000000 0.000000 0.000000 
-1.662800 0.955348 3.561431 0.696743 -15.363434 0.918758 -8.415639 -1.331583 -8.426373 0.235905 -0.111974 12.362572 3.520455 7.772310 1.540303 0.000000 0.000000 0.000000 -1.661899 1.171637 -11.818184 7.608415 2.428028 54.361355 -3.261977 -11.911206 11.003750 0.000000 0.000000 0.000000 -4.682885 0.179070 7.527368 1.307355 0.040441 -23.751259 -1.150398 -0.435021 31.535295 -0.270184 -0.248353 -17.937451 0.000000 0.000000 0.000000 -16.485362 -1.397491 2.324541 -60.007405 -8.297533 -5.647104 0.516461 -35.983320 3.174074 0.000000 0.000000 0.000000 13.945390 2.421551 -1.585821 68.550686 1.990744 -9.443499 4.432656 29.493380 1.950189 0.000000 0.000000 0.000000 
-1.670651 0.955697 3.601837 0.103947 -13.213586 -0.013502 -8.112159 -0.796344 -4.920690 0.626060 -0.262943 12.665387 2.876440 6.097609 -1.030654 0.000000 0.000000 0.000000 -1.089947 1.834976 -17.118630 7.036603 1.954431 52.964571 -4.616050 -12.559924 3.404924 0.000000 0.000000 0.000000 -3.622782 0.053669 8.122256 1.089738 0.063746 -22.906698 -1.769223 -1.855850 30.860768 -0.279873 -0.281752 -17.441098 0.000000 0.000000 0.000000 -16.673148 -0.957986 2.070246 -59.869417 -9.129367 -5.190483 -0.091249 -36.960020 3.495311 0.000000 0.000000 0.000000 14.542372 2.253963 -1.782211 68.438000 1.537843 -9.573956 3.799463 29.571623 1.792777 0.000000 0.000000 0.000000 
-1.678401 0.955045 3.641712 -0.549716 -10.523176 -0.870247 -7.333704 -0.092968 -0.595891 1.138580 -0.452479 12.011820 1.972504 3.564048 -2.994550 0.000000 0.000000 0.000000 -1.118642 2.393612 -21.849504 6.656018 0.962220 48.141227 -4.672085 -11.944400 0.743018 0.000000 0.000000 0.000000 -3.149510 -0.018703 9.090610 1.688521 0.002754 -23.707768 -2.174926 -2.527897 31.966929 -0.250320 -0.216241 -16.408439 0.000000 0.000000 0.000000 -16.971277 -1.399282 2.157174 -59.584087 -10.772843 -4.594602 -1.145635 -37.765770 3.916111 0.000000 0.000000 0.000000 15.140592 1.807467 -1.832479 67.831505 1.613254 -9.459093 4.481408 29.369438 2.064109 0.000000 0.000000 0.000000 
-1.686025 0.952608 3.681262 -1.056979 -7.443221 -2.056464 -6.440545 0.523501 3.367803 1.785110 -0.677520 12.213064 1.352350 1.541434 -4.203236 0.000000 0.000000 0.000000 -1.255936 2.757571 -25.770363 5.893667 0.234505 41.112002 -4.741606 -12.349539 1.675553 0.000000 0.000000 0.000000 -2.287457 -0.142977 10.052696 1.847316 -0.001673 -23.570819 -2.725895 -3.766969 31.837562 -0.049316 -0.291067 -16.175603 0.000000 0.000000 0.000000 -17.644771 -1.412264 2.031745 -58.902564 -11.666839 -4.248707 -1.505611 -39.080228 4.157101 0.000000 0.000000 0.000000 15.839331 2.075929 -1.617593 67.881295 1.251180 -9.594229 2.803095 29.296789 1.730355 0.000000 0.000000 0.000000 
-1.693475 0.949395 3.721004 -1.504992 -5.108389 -2.649752 -5.802955 1.004064 6.695282 2.485720 -0.854464 11.458456 0.564806 -0.773002 -4.794933 0.000000 0.000000 0.000000 -1.439211 2.888135 -28.248060 4.082193 0.286447 32.062526 -4.081540 -11.445289 4.151875 0.000000 0.000000 0.000000 -1.943252 -0.208429 10.531439 1.663389 0.099023 -23.861135 -2.402255 -5.007539 32.176125 -0.946370 0.381122 -16.902212 0.000000 0.000000 0.000000 -18.323435 -0.880179 1.743733 -59.421282 -12.460558 -3.951098 -2.643259 -41.066549 4.954091 0.000000 0.000000 0.000000 15.255576 2.008846 -1.474188 68.259356 1.442115 -9.602315 2.882347 28.320050 1.719429 0.000000 0.000000 0.000000 
-1.700641 0.946083 3.761723 -1.883010 -2.719792 -3.539600 -4.949254 1.409999 10.080885 3.422216 -1.094975 11.402686 -0.996415 -4.360557 -4.129344 0.000000 0.000000 0.000000 -1.224615 2.994432 -30.231324 1.586511 0.643375 24.011188 -2.675715 -9.865074 10.052506 0.000000 0.000000 0.000000 -1.582357 -0.279645 10.915718 1.644032 0.147868 -23.968541 -2.119669 -5.962437 31.756759 -1.403385 0.776651 -16.193286 0.000000 0.000000 0.000000 -18.045018 -0.948085 1.562472 -59.396810 -12.416935 -3.888401 -4.761720 -40.704137 5.534001 0.000000 0.000000 0.000000 14.496959 2.058074 -1.186557 68.182373 0.280194 -10.258560 3.040217 28.539870 1.811293 0.000000 0.000000 0.000000 
-1.707330 0.942245 3.804714 -1.839387 0.163871 -4.382057 -4.041965 1.671051 13.186556 3.489953 -1.106425 10.783121 -1.870859 -6.216562 -3.551563 0.000000 0.000000 0.000000 -1.595434 2.601452 -29.507700 0.054257 0.642746 16.398509 -2.000469 -9.344939 14.751350 0.000000 0.000000 0.000000 -1.394595 -0.337382 11.191724 1.421054 0.254158 -24.067727 -2.247074 -7.328453 32.010358 -1.392668 0.791502 -15.892678 0.000000 0.000000 0.000000 -18.162137 -0.406000 1.157382 -59.058320 -12.710436 -3.796583 -7.279789 -40.318182 6.352412 0.000000 0.000000 0.000000 14.301185 0.931524 -1.588169 67.959847 0.504891 -10.114025 3.548409 27.272056 1.872255 0.000000 0.000000 0.000000 
-1.713496 0.937421 3.850317 -1.971114 2.328256 -5.120471 -2.575539 1.860964 17.255026 3.176543 -0.993084 9.757589 -3.580530 -8.096483 -0.546210 0.000000 0.000000 0.000000 -2.768010 2.086462 -28.892251 0.355822 0.294384 9.935067 -1.411044 -8.872270 18.895358 0.000000 0.000000 0.000000 -1.428648 -0.368458 11.428969 1.733500 0.226352 -24.475097 -1.637969 -7.942827 31.981490 -2.179641 1.463463 -15.633420 0.000000 0.000000 0.000000 -18.859409 0.076307 0.703256 -59.216350 -12.489821 -3.949524 -10.286107 -39.388687 7.168300 0.000000 0.000000 0.000000 13.803608 0.080116 -1.751604 67.169431 -0.595103 -10.621114 5.033137 27.265511 2.249575 0.000000 0.000000 0.000000 
-1.719448 0.931251 3.898121 -1.846746 4.484138 -5.599913 -1.549671 1.832844 19.969991 3.179169 -1.007554 9.736393 -4.072958 -7.707742 1.416245 0.000000 0.000000 0.000000 -3.781695 1.578127 -27.324325 -0.336194 0.167135 3.243982 -1.537724 -9.067695 20.872143 0.000000 0.000000 0.000000 -1.042558 -0.370641 10.082245 1.198264 0.358742 -23.067978 -1.488079 -9.603250 31.674105 -1.551861 0.897979 -14.879010 0.000000 0.000000 0.000000 -18.948700 0.254133 0.649699 -59.314839 -12.228981 -4.048846 -11.991835 -38.759232 7.665050 0.000000 0.000000 0.000000 13.888734 -0.162789 -1.941279 67.013890 -2.054476 -11.397579 4.908688 27.245710 2.190600 0.000000 0.000000 0.000000 
-1.725832 0.923283 3.947999 -1.711976 5.498743 -5.490948 -0.700573 1.839237 23.131703 3.000285 -0.898481 8.664662 -5.087526 -8.556933 3.106025 0.000000 0.000000 0.000000 -4.358955 1.303076 -25.761161 -0.529833 -0.080359 -3.286659 -1.722841 -9.244745 21.283438 0.000000 0.000000 0.000000 -0.709543 -0.369633 9.345227 1.863739 0.200021 -22.832314 -1.890614 -9.610062 31.564990 -1.735190 1.137894 -15.536719 0.000000 0.000000 0.000000 -19.536513 1.201077 -0.042034 -59.592340 -12.076759 -4.118135 -12.713536 -37.373838 7.529082 0.000000 0.000000 0.000000 13.900946 -1.274211 -2.367306 65.320685 -2.993567 -11.527446 5.694796 27.025243 2.358285 0.000000 0.000000 0.000000 
